<?xml version="1.0" encoding="utf-8"?>
<!-- Generator: Adobe Illustrator 24.1.2, SVG Export Plug-In . SVG Version: 6.00 Build 0)  -->
<svg version="1.1" id="Слой_1" xmlns="http://www.w3.org/2000/svg" xmlns:xlink="http://www.w3.org/1999/xlink" x="0px" y="0px"
	 viewBox="0 0 355.15 92.6" style="enable-background:new 0 0 355.15 92.6;" xml:space="preserve">
<style type="text/css">
	.st0{fill:#FFFFFF;}
</style>
<g>
	<g>
		<polygon class="st0" points="139.89,46.52 53.09,54.18 46.45,90.43 40.15,55.2 1.85,46.52 39.47,39.03 46.45,3.45 54.45,40.05 		
			"/>
		<polygon class="st0" points="50.7,41.33 66.79,68.01 39.34,48.09 25.51,27.28 		"/>
		<polygon class="st0" points="41.57,41.58 25.49,67.88 52.94,48.35 66.47,26.77 		"/>
	</g>
	<g>
		<path class="st0" d="M149.74,35.79v-2.11h11.81v2.11h-4.8v19.44h-2.2V35.79H149.74z"/>
		<path class="st0" d="M171.02,32.73c0.47,0,0.87,0.17,1.2,0.5s0.5,0.73,0.5,1.2c0,0.46-0.17,0.85-0.5,1.19s-0.73,0.5-1.2,0.5
			c-0.46,0-0.85-0.17-1.18-0.5s-0.5-0.73-0.5-1.19c0-0.47,0.17-0.87,0.5-1.2S170.57,32.73,171.02,32.73z M170.01,39.29h2.05v15.94
			h-2.05V39.29z"/>
		<path class="st0" d="M197.79,42.6l-1.63,1.01c-1.4-1.87-3.32-2.8-5.75-2.8c-1.94,0-3.55,0.62-4.84,1.87s-1.92,2.77-1.92,4.55
			c0,1.16,0.29,2.25,0.89,3.28c0.59,1.02,1.4,1.82,2.43,2.38c1.03,0.57,2.18,0.85,3.46,0.85c2.34,0,4.25-0.93,5.74-2.8l1.63,1.07
			c-0.76,1.15-1.78,2.04-3.07,2.67s-2.75,0.95-4.39,0.95c-2.52,0-4.61-0.8-6.27-2.4s-2.49-3.55-2.49-5.84c0-1.54,0.39-2.98,1.16-4.3
			s1.84-2.36,3.2-3.1s2.88-1.11,4.56-1.11c1.05,0,2.07,0.16,3.05,0.48s1.81,0.74,2.5,1.26S197.31,41.8,197.79,42.6z"/>
		<path class="st0" d="M207.71,33.14h2.05v12.58l7.39-6.43h3.01l-8.76,7.6l9.27,8.33h-2.89l-8.03-7.18v7.18h-2.05V33.14z"/>
		<path class="st0" d="M242.21,49.94l1.73,0.91c-0.57,1.11-1.22,2.01-1.96,2.7s-1.58,1.2-2.51,1.56s-1.98,0.53-3.15,0.53
			c-2.6,0-4.63-0.85-6.1-2.56c-1.47-1.7-2.2-3.63-2.2-5.78c0-2.02,0.62-3.82,1.86-5.41c1.57-2.01,3.68-3.02,6.32-3.02
			c2.72,0,4.89,1.03,6.51,3.09c1.15,1.46,1.74,3.27,1.76,5.45h-14.34c0.04,1.85,0.63,3.37,1.77,4.55c1.14,1.18,2.56,1.78,4.24,1.78
			c0.81,0,1.6-0.14,2.37-0.42c0.77-0.28,1.42-0.66,1.96-1.12C241,51.73,241.58,50.98,242.21,49.94z M242.21,45.65
			c-0.27-1.09-0.67-1.97-1.2-2.62s-1.21-1.18-2.08-1.58s-1.76-0.6-2.71-0.6c-1.56,0-2.91,0.5-4.03,1.51
			c-0.82,0.73-1.44,1.83-1.86,3.3H242.21z"/>
		<path class="st0" d="M256.07,33.37h2.05v5.92h3.25v1.77h-3.25v14.17h-2.05V41.06h-2.8v-1.77h2.8V33.37z"/>
		<path class="st0" d="M270.58,55.23V33.14h2.05v8.89c0.86-1.05,1.82-1.84,2.88-2.37s2.23-0.78,3.5-0.78c2.25,0,4.18,0.82,5.77,2.45
			c1.59,1.64,2.39,3.62,2.39,5.95c0,2.3-0.8,4.27-2.42,5.9c-1.61,1.63-3.55,2.45-5.81,2.45c-1.3,0-2.47-0.28-3.53-0.83
			s-1.99-1.39-2.79-2.5v2.93H270.58z M278.79,53.66c1.14,0,2.19-0.28,3.16-0.84c0.96-0.56,1.73-1.35,2.3-2.37
			c0.57-1.02,0.86-2.09,0.86-3.22s-0.29-2.21-0.86-3.24s-1.35-1.82-2.32-2.4s-2-0.86-3.11-0.86c-1.12,0-2.18,0.29-3.19,0.86
			s-1.78,1.34-2.32,2.31c-0.54,0.97-0.81,2.06-0.81,3.27c0,1.85,0.61,3.39,1.82,4.63S277.01,53.66,278.79,53.66z"/>
		<path class="st0" d="M296.65,39.29h2.05v7.44c0,1.82,0.1,3.07,0.29,3.75c0.29,0.98,0.85,1.75,1.68,2.31
			c0.83,0.57,1.81,0.85,2.96,0.85c1.14,0,2.11-0.28,2.91-0.83c0.8-0.55,1.35-1.28,1.65-2.18c0.21-0.62,0.31-1.92,0.31-3.91v-7.44
			h2.09v7.82c0,2.2-0.26,3.85-0.77,4.97c-0.51,1.11-1.28,1.98-2.31,2.61s-2.32,0.94-3.87,0.94s-2.85-0.31-3.89-0.94
			c-1.04-0.63-1.82-1.51-2.33-2.64c-0.51-1.13-0.77-2.82-0.77-5.09V39.29z"/>
		<path class="st0" d="M320.38,39.29h2.09v2.33c0.63-0.92,1.28-1.6,1.98-2.06s1.42-0.68,2.17-0.68c0.57,0,1.17,0.18,1.82,0.54
			l-1.07,1.73c-0.43-0.19-0.79-0.28-1.08-0.28c-0.68,0-1.34,0.28-1.98,0.84s-1.12,1.43-1.45,2.61c-0.25,0.91-0.38,2.74-0.38,5.51
			v5.39h-2.09V39.29z"/>
		<path class="st0" d="M349.92,39.29h2.05v12.7c0,2.24-0.2,3.87-0.59,4.91c-0.54,1.46-1.47,2.59-2.8,3.38s-2.92,1.19-4.79,1.19
			c-1.37,0-2.6-0.19-3.68-0.58c-1.09-0.39-1.98-0.91-2.66-1.56s-1.31-1.6-1.89-2.86h2.23c0.61,1.05,1.39,1.84,2.35,2.34
			s2.15,0.76,3.56,0.76c1.4,0,2.58-0.26,3.54-0.78c0.96-0.52,1.65-1.18,2.06-1.96c0.41-0.79,0.62-2.06,0.62-3.82V52.2
			c-0.77,0.98-1.72,1.73-2.83,2.25s-2.3,0.78-3.55,0.78c-1.47,0-2.84-0.36-4.13-1.09s-2.29-1.71-2.99-2.94s-1.06-2.58-1.06-4.06
			s0.37-2.85,1.1-4.12s1.75-2.28,3.04-3.02c1.29-0.74,2.66-1.11,4.1-1.11c1.19,0,2.3,0.25,3.34,0.74c1.03,0.49,2.03,1.31,2.98,2.44
			V39.29z M343.87,40.86c-1.16,0-2.24,0.28-3.24,0.84s-1.78,1.34-2.34,2.33s-0.85,2.06-0.85,3.22c0,1.75,0.59,3.19,1.76,4.34
			s2.69,1.71,4.56,1.71c1.88,0,3.4-0.57,4.55-1.7s1.72-2.62,1.72-4.47c0-1.2-0.26-2.27-0.79-3.22s-1.27-1.69-2.24-2.23
			S344.98,40.86,343.87,40.86z"/>
	</g>
</g>
</svg>
