<?xml version="1.0" encoding="utf-8"?>
<!-- Generator: Adobe Illustrator 24.1.2, SVG Export Plug-In . SVG Version: 6.00 Build 0)  -->
<svg version="1.1" id="Слой_1" xmlns="http://www.w3.org/2000/svg" xmlns:xlink="http://www.w3.org/1999/xlink" x="0px" y="0px"
	 viewBox="0 0 497.87 92.04" style="enable-background:new 0 0 497.87 92.04;" xml:space="preserve">
<style type="text/css">
	.st0{fill:#FFFFFF;}
</style>
<polygon class="st0" points="139.71,46.87 52.9,54.53 46.26,90.78 39.96,55.55 1.67,46.87 39.28,39.38 46.26,3.8 54.26,40.4 "/>
<g>
	<polygon class="st0" points="54.44,38.71 77.2,76.47 38.36,48.29 18.79,18.84 	"/>
	<polygon class="st0" points="41.52,39.07 18.76,76.29 57.6,48.65 76.75,18.12 	"/>
</g>
<g>
	<path class="st0" d="M149.3,28.45v-3.52h19.68v3.52h-8.01v32.4h-3.66v-32.4H149.3z"/>
	<path class="st0" d="M184.77,23.34c0.78,0,1.44,0.28,1.99,0.83c0.55,0.55,0.83,1.22,0.83,2c0,0.77-0.28,1.42-0.83,1.98
		c-0.55,0.55-1.22,0.83-1.99,0.83c-0.76,0-1.42-0.28-1.97-0.83c-0.55-0.55-0.83-1.21-0.83-1.98c0-0.78,0.28-1.45,0.83-2
		C183.35,23.62,184.01,23.34,184.77,23.34z M183.07,34.28h3.42v26.56h-3.42V34.28z"/>
	<path class="st0" d="M229.38,39.8l-2.71,1.68c-2.34-3.11-5.54-4.66-9.58-4.66c-3.24,0-5.92,1.04-8.06,3.12s-3.21,4.61-3.21,7.58
		c0,1.94,0.49,3.76,1.48,5.46c0.98,1.71,2.33,3.03,4.05,3.98c1.71,0.94,3.64,1.41,5.77,1.41c3.9,0,7.09-1.55,9.56-4.66l2.71,1.78
		c-1.27,1.91-2.97,3.4-5.12,4.45c-2.14,1.05-4.58,1.58-7.31,1.58c-4.2,0-7.68-1.33-10.45-4c-2.77-2.67-4.15-5.92-4.15-9.74
		c0-2.57,0.65-4.96,1.94-7.17c1.29-2.21,3.07-3.93,5.33-5.16c2.26-1.24,4.79-1.86,7.59-1.86c1.76,0,3.45,0.27,5.09,0.81
		c1.64,0.54,3.02,1.24,4.16,2.1C227.61,37.37,228.58,38.46,229.38,39.8z"/>
	<path class="st0" d="M245.92,24.03h3.42V45l12.32-10.72h5.02l-14.6,12.67l15.45,13.89h-4.81l-13.38-11.96v11.96h-3.42V24.03z"/>
	<path class="st0" d="M303.41,52.03l2.88,1.51c-0.95,1.86-2.04,3.35-3.27,4.49c-1.24,1.14-2.63,2.01-4.18,2.6s-3.3,0.89-5.25,0.89
		c-4.33,0-7.72-1.42-10.17-4.26c-2.44-2.84-3.67-6.05-3.67-9.63c0-3.37,1.03-6.37,3.1-9.01c2.62-3.35,6.13-5.03,10.53-5.03
		c4.53,0,8.14,1.72,10.85,5.15c1.92,2.43,2.9,5.45,2.93,9.08h-23.9c0.06,3.09,1.05,5.61,2.96,7.59c1.91,1.97,4.26,2.96,7.06,2.96
		c1.35,0,2.67-0.23,3.95-0.71c1.28-0.47,2.37-1.09,3.26-1.87C301.39,55.02,302.36,53.77,303.41,52.03z M303.41,44.88
		c-0.46-1.82-1.12-3.28-1.99-4.37c-0.87-1.09-2.03-1.97-3.46-2.64c-1.43-0.67-2.94-1-4.52-1c-2.61,0-4.85,0.84-6.72,2.51
		c-1.37,1.22-2.4,3.05-3.1,5.49H303.41z"/>
	<path class="st0" d="M326.52,24.42h3.42v9.86h5.42v2.95h-5.42v23.61h-3.42V37.24h-4.66v-2.95h4.66V24.42z"/>
	<path class="st0" d="M350.7,60.84V24.03h3.42v14.82c1.43-1.76,3.03-3.07,4.8-3.94c1.77-0.87,3.71-1.31,5.83-1.31
		c3.76,0,6.96,1.36,9.62,4.09c2.66,2.73,3.99,6.03,3.99,9.92c0,3.84-1.34,7.12-4.02,9.84c-2.68,2.72-5.91,4.08-9.68,4.08
		c-2.16,0-4.12-0.46-5.88-1.39s-3.31-2.32-4.66-4.17v4.88H350.7z M364.37,58.23c1.9,0,3.65-0.47,5.26-1.4
		c1.61-0.94,2.89-2.25,3.84-3.94c0.95-1.69,1.42-3.48,1.42-5.37c0-1.89-0.48-3.69-1.44-5.4c-0.96-1.71-2.25-3.04-3.86-3.99
		s-3.34-1.43-5.18-1.43c-1.87,0-3.64,0.48-5.32,1.43s-2.97,2.23-3.87,3.85s-1.35,3.43-1.35,5.44c0,3.08,1.01,5.65,3.03,7.71
		C358.93,57.2,361.42,58.23,364.37,58.23z"/>
	<path class="st0" d="M394.15,34.28h3.42v12.4c0,3.03,0.16,5.11,0.49,6.25c0.49,1.63,1.42,2.91,2.8,3.86
		c1.38,0.94,3.02,1.42,4.93,1.42s3.53-0.46,4.85-1.38c1.33-0.92,2.25-2.13,2.75-3.63c0.34-1.03,0.51-3.2,0.51-6.52v-12.4h3.49v13.04
		c0,3.66-0.43,6.42-1.28,8.28c-0.86,1.86-2.14,3.31-3.86,4.36c-1.72,1.05-3.87,1.57-6.46,1.57s-4.75-0.52-6.48-1.57
		c-1.73-1.05-3.03-2.51-3.88-4.39c-0.85-1.88-1.28-4.71-1.28-8.48V34.28z"/>
	<path class="st0" d="M433.69,34.28h3.49v3.88c1.04-1.53,2.14-2.67,3.3-3.43c1.16-0.76,2.36-1.14,3.61-1.14
		c0.94,0,1.95,0.3,3.03,0.9l-1.78,2.88c-0.72-0.31-1.32-0.46-1.81-0.46c-1.14,0-2.24,0.47-3.3,1.4c-1.06,0.94-1.86,2.39-2.42,4.36
		c-0.42,1.51-0.63,4.57-0.63,9.18v8.98h-3.49V34.28z"/>
	<path class="st0" d="M482.92,34.28h3.42v21.17c0,3.73-0.33,6.45-0.98,8.18c-0.9,2.44-2.45,4.32-4.66,5.64
		c-2.21,1.32-4.88,1.98-7.98,1.98c-2.28,0-4.33-0.32-6.14-0.97c-1.81-0.65-3.29-1.51-4.43-2.6c-1.14-1.09-2.19-2.67-3.15-4.76h3.71
		c1.01,1.76,2.31,3.06,3.91,3.91c1.6,0.85,3.58,1.27,5.94,1.27c2.33,0,4.3-0.43,5.9-1.3c1.61-0.87,2.75-1.96,3.43-3.27
		c0.68-1.31,1.03-3.44,1.03-6.36v-1.37c-1.29,1.63-2.86,2.88-4.72,3.75c-1.86,0.87-3.83,1.31-5.91,1.31c-2.44,0-4.74-0.61-6.89-1.82
		c-2.15-1.21-3.81-2.84-4.99-4.9c-1.17-2.05-1.76-4.3-1.76-6.76c0-2.46,0.61-4.75,1.83-6.87c1.22-2.12,2.91-3.8,5.07-5.04
		c2.16-1.24,4.44-1.86,6.83-1.86c1.99,0,3.84,0.41,5.56,1.23c1.72,0.82,3.38,2.18,4.97,4.06V34.28z M472.84,36.89
		c-1.94,0-3.74,0.47-5.4,1.4c-1.66,0.94-2.96,2.23-3.91,3.88c-0.94,1.65-1.42,3.44-1.42,5.36c0,2.91,0.98,5.32,2.93,7.23
		s4.48,2.86,7.59,2.86c3.14,0,5.67-0.94,7.58-2.83c1.91-1.89,2.87-4.37,2.87-7.45c0-2-0.44-3.79-1.32-5.36
		c-0.88-1.57-2.12-2.81-3.74-3.72C476.43,37.35,474.7,36.89,472.84,36.89z"/>
</g>
</svg>
